# xmcd
#
# Track frame offsets: 
#        150
#        20293
#        38812
#        60912
#        84651
#        112195
#        137879
#        153497
#        175420
#        192387
#        222916
#        246668
#
# Disc length: 3393 seconds
#
# Revision: 2
# Processed by: cddbd v1.5.1PL0 Copyright (c) Steve Scherf et al.
# Submitted via: ExactAudioCopy v0.95a5
#
DISCID=ad0d3f0c
DTITLE=Harper - Live At St. Andrews
DYEAR=2001
DGENRE=Blues
TTITLE0=Aint Love Blind
TTITLE1=Glass OnThe Stepping Stone
TTITLE2=Mystery
TTITLE3=I Really Don't Know
TTITLE4=Lonely Town
TTITLE5=Never Change The Way She Feels
TTITLE6=Well I Know
TTITLE7=No Problem
TTITLE8=Better Off Dead
TTITLE9=Watch Out For Me
TTITLE10=Help Me
TTITLE11=Outro
EXTD=All songs written by Harper except 5 and 9 by Bill Withers\nand 11 
EXTD=by Sonnyboy Williamson.\n\nRecorded by Rob Harwood at St. Andrews
EXTD=Hotel, Melbourne, Australia\n\nwww.harper.biz
EXTT0=
EXTT1=
EXTT2=
EXTT3=
EXTT4=
EXTT5=
EXTT6=
EXTT7=
EXTT8=
EXTT9=
EXTT10=
EXTT11=
PLAYORDER=
